<svg width="24" height="24" viewBox="0 0 24 24" fill="none" xmlns="http://www.w3.org/2000/svg">
<path d="M0 0H24V24H0V0Z" fill="black"/>
<path d="M9.6 7.2C9.6 8.52548 8.52548 9.6 7.2 9.6C5.87452 9.6 4.8 8.52548 4.8 7.2C4.8 5.87452 5.87452 4.8 7.2 4.8C8.52548 4.8 9.6 5.87452 9.6 7.2Z" fill="white"/>
<path d="M9.6 16.8C9.6 18.1255 8.52548 19.2 7.2 19.2C5.87452 19.2 4.8 18.1255 4.8 16.8C4.8 15.4745 5.87452 14.4 7.2 14.4C8.52548 14.4 9.6 15.4745 9.6 16.8Z" fill="white"/>
<path d="M19.2 16.8C19.2 18.1255 18.1255 19.2 16.8 19.2C15.4745 19.2 14.4 18.1255 14.4 16.8C14.4 15.4745 15.4745 14.4 16.8 14.4C18.1255 14.4 19.2 15.4745 19.2 16.8Z" fill="white"/>
<path d="M19.2 7.2C19.2 8.52548 18.1255 9.6 16.8 9.6C15.4745 9.6 14.4 8.52548 14.4 7.2C14.4 5.87452 15.4745 4.8 16.8 4.8C18.1255 4.8 19.2 5.87452 19.2 7.2Z" fill="white"/>
</svg>
