<svg width="300" height="19" viewBox="0 0 300 19" fill="none" xmlns="http://www.w3.org/2000/svg">
<path d="M0 1.11908H13.895C15.5682 1.11908 17.0232 1.33803 18.2599 1.77593C19.4966 2.23816 20.4424 2.87068 21.1214 3.69782C21.7761 4.5493 22.1156 5.52241 22.1156 6.64149C22.1156 7.95519 21.6548 9.07426 20.7334 10.023C19.8119 10.9718 18.5509 11.6287 16.9262 11.9936L23.3281 18.3918H13.9192L8.82683 12.5775H7.61436V18.3918H0V1.11908ZM13.7495 7.95519C14.1132 7.68758 14.3072 7.34699 14.3072 6.88476C14.3072 6.42254 14.1375 6.03329 13.7737 5.76568C13.41 5.49808 12.9008 5.37644 12.246 5.37644H7.61436V8.36876H12.246C12.8765 8.36876 13.3857 8.22279 13.7495 7.95519Z" fill="black"/>
<path d="M30.4889 17.8566C28.4277 17.1024 26.8272 16.0077 25.6875 14.5967C24.5477 13.21 23.9657 11.58 23.9657 9.75544C23.9657 7.93086 24.5477 6.3009 25.6875 4.88988C26.8272 3.5032 28.4277 2.40845 30.4889 1.65429C32.5501 0.900128 34.9508 0.510884 37.6425 0.510884C40.3584 0.510884 42.7591 0.900128 44.8204 1.65429C46.8816 2.40845 48.5063 3.5032 49.646 4.88988C50.7857 6.3009 51.3435 7.93086 51.3435 9.75544C51.3435 11.58 50.7857 13.21 49.646 14.5967C48.5063 16.0077 46.8816 17.1024 44.8204 17.8566C42.7591 18.6108 40.3584 19 37.6425 19C34.9508 19 32.5501 18.6108 30.4889 17.8566ZM40.6737 13.3803C41.5224 13.0397 42.2014 12.5531 42.6864 11.9206C43.1471 11.3124 43.3896 10.5826 43.3896 9.75544C43.3896 8.9283 43.1471 8.19846 42.6864 7.56594C42.2014 6.95775 41.5224 6.47119 40.6737 6.1306C39.8007 5.79001 38.7822 5.61972 37.6425 5.61972C36.5028 5.61972 35.4843 5.79001 34.6355 6.1306C33.7626 6.47119 33.0836 6.95775 32.6228 7.56594C32.1378 8.19846 31.8953 8.9283 31.8953 9.75544C31.8953 10.5826 32.1378 11.3124 32.6228 11.9206C33.0836 12.5531 33.7626 13.0397 34.6355 13.3803C35.4843 13.7209 36.5028 13.8912 37.6425 13.8912C38.7822 13.8912 39.8007 13.7209 40.6737 13.3803Z" fill="black"/>
<path d="M53.6853 1.11908H61.2996V13.1613H72.0422V18.3918H53.6853V1.11908Z" fill="black"/>
<path d="M74.2642 1.11908H81.8786V13.1613H92.6211V18.3918H74.2642V1.11908Z" fill="black"/>
<path d="M107.433 12.3828L97.8306 1.11908H106.803L111.58 7.12804L116.236 1.11908H124.457L115.048 12.1882V18.3918H107.433V12.3828Z" fill="black"/>
<path d="M131.56 17.8566C129.499 17.1024 127.899 16.0077 126.759 14.5967C125.619 13.21 125.037 11.58 125.037 9.75544C125.037 7.93086 125.619 6.3009 126.759 4.88988C127.899 3.5032 129.499 2.40845 131.56 1.65429C133.621 0.900128 136.022 0.510884 138.714 0.510884C141.43 0.510884 143.83 0.900128 145.892 1.65429C147.953 2.40845 149.578 3.5032 150.717 4.88988C151.857 6.3009 152.415 7.93086 152.415 9.75544C152.415 11.58 151.857 13.21 150.717 14.5967C149.578 16.0077 147.953 17.1024 145.892 17.8566C143.83 18.6108 141.43 19 138.714 19C136.022 19 133.621 18.6108 131.56 17.8566ZM141.745 13.3803C142.594 13.0397 143.273 12.5531 143.758 11.9206C144.218 11.3124 144.461 10.5826 144.461 9.75544C144.461 8.9283 144.218 8.19846 143.758 7.56594C143.273 6.95775 142.594 6.47119 141.745 6.1306C140.872 5.79001 139.854 5.61972 138.714 5.61972C137.574 5.61972 136.556 5.79001 135.707 6.1306C134.834 6.47119 134.155 6.95775 133.694 7.56594C133.209 8.19846 132.967 8.9283 132.967 9.75544C132.967 10.5826 133.209 11.3124 133.694 11.9206C134.155 12.5531 134.834 13.0397 135.707 13.3803C136.556 13.7209 137.574 13.8912 138.714 13.8912C139.854 13.8912 140.872 13.7209 141.745 13.3803Z" fill="black"/>
<path d="M160.043 17.9782C158.273 17.2971 156.891 16.3239 155.945 15.0589C154.975 13.8182 154.49 12.3342 154.49 10.6556V1.11908H162.104V10.2907C162.104 11.3854 162.468 12.2369 163.195 12.8451C163.923 13.4776 164.917 13.7939 166.202 13.7939C167.488 13.7939 168.482 13.4776 169.234 12.8451C169.985 12.2369 170.349 11.3854 170.349 10.2907V1.11908H177.963V10.6556C177.963 12.3342 177.478 13.8182 176.533 15.0589C175.587 16.3239 174.229 17.2971 172.459 17.9782C170.689 18.6594 168.603 19 166.251 19C163.874 19 161.813 18.6594 160.043 17.9782Z" fill="black"/>
<path d="M181.043 1.11908H194.938C196.611 1.11908 198.066 1.33803 199.303 1.77593C200.539 2.23816 201.485 2.87068 202.164 3.69782C202.819 4.5493 203.158 5.52241 203.158 6.64149C203.158 7.95519 202.698 9.07426 201.776 10.023C200.855 10.9718 199.594 11.6287 197.969 11.9936L204.371 18.3918H194.962L189.87 12.5775H188.657V18.3918H181.043V1.11908ZM194.792 7.95519C195.156 7.68758 195.35 7.34699 195.35 6.88476C195.35 6.42254 195.18 6.03329 194.816 5.76568C194.453 5.49808 193.943 5.37644 193.289 5.37644H188.657V8.36876H193.289C193.919 8.36876 194.428 8.22279 194.792 7.95519Z" fill="black"/>
<path d="M226.353 1.67862L224.704 8.34443H223.782C223.976 4.30602 222.885 2.06786 220.315 2.06786C218.835 2.06786 217.72 2.82202 216.75 3.84379C215.125 5.57106 213.404 8.73367 213.404 12.991C213.404 14.694 213.84 15.7887 214.616 16.5915C215.271 17.2727 216.168 17.589 217.235 17.589C220.121 17.589 221.988 15.2778 223.176 12.7964L224.049 13.2343C222.57 16.4213 219.999 18.7324 216.823 18.7324C213.21 18.7324 210.882 16.5672 210.882 12.2612C210.882 7.1767 215.028 1.09475 220.29 1.09475C222.643 1.09475 223.613 2.04353 224.243 2.84635H224.437L225.48 1.67862H226.353Z" fill="black"/>
<path d="M230.135 9.90141H230.426C232.148 6.83611 233.603 5.79001 235.421 5.79001C236.682 5.79001 237.458 6.61716 237.458 7.78489C237.458 8.85531 236.949 10.1447 236.149 12.5288C235.543 14.3291 234.815 16.2996 234.815 16.8105C234.815 17.2241 235.009 17.37 235.252 17.37C236.197 17.37 237.167 16.2996 237.968 14.7913L238.671 15.2535C237.846 17.1024 235.955 18.7081 234.015 18.7081C233.021 18.7081 232.342 18.0026 232.342 17.0294C232.342 16.0077 233.287 13.7695 233.966 11.7746C234.573 9.90141 235.227 8.36876 235.227 7.76056C235.227 7.20102 234.985 6.95775 234.427 6.95775C233.433 6.95775 231.323 8.68502 229.238 13.9885C228.753 15.2292 228.05 17.0051 227.589 18.3918H225.212C226.013 15.8374 226.376 14.8886 229.99 3.91677C230.329 2.91933 230.474 2.33547 230.474 1.99488C230.474 1.58131 230.45 1.33803 230.232 1.14341C229.989 0.924455 229.359 0.851473 228.898 0.802817L229.165 0H233.53C233.675 0 233.7 0.0973113 233.7 0.145966C233.7 0.291934 233.53 0.632523 233.336 1.16773C233.045 1.89757 232.875 2.40845 232.463 3.64917L230.135 9.90141Z" fill="black"/>
<path d="M249.033 16.7375C249.033 17.1024 249.203 17.37 249.542 17.37C250.488 17.37 251.652 16.3483 252.452 14.7913L253.131 15.2535C252.307 17.1024 250.415 18.7081 248.475 18.7081C247.481 18.7081 246.948 18.0269 246.948 17.1024C246.948 16.4699 247.117 15.959 247.214 15.5698H246.948C246.463 16.3483 246.22 16.7132 245.565 17.37C244.814 18.1242 243.771 18.7081 242.583 18.7081C241.225 18.7081 239.697 17.7836 239.697 15.2778C239.697 11.799 243.383 5.79001 247.044 5.79001C248.305 5.79001 249.227 6.54417 249.348 7.6146H249.639L250.391 6.10627H252.161C251.7 7.54161 250.973 9.70679 250.27 11.9449C249.445 14.3777 249.033 16.2023 249.033 16.7375ZM246.875 14.3291C247.893 12.4315 248.596 9.87708 248.596 8.58771C248.596 7.22535 247.893 6.64149 247.044 6.64149C246.026 6.64149 245.032 7.32266 244.183 8.66069C242.849 10.8015 242.025 13.4533 242.025 15.8131C242.025 17.0781 242.607 17.5647 243.407 17.5647C244.256 17.5647 244.959 16.9078 245.42 16.3726C245.905 15.7644 246.39 15.2292 246.875 14.3291Z" fill="black"/>
<path d="M267.049 14.7913L267.728 15.2535C266.855 17.0538 265.157 18.7081 263.096 18.7081C262.102 18.7081 261.399 18.0026 261.399 17.0294C261.399 16.0077 262.344 13.7695 263.023 11.7746C263.63 9.90141 264.284 8.36876 264.284 7.76056C264.284 7.20102 264.042 6.95775 263.484 6.95775C262.49 6.95775 260.38 8.68502 258.295 13.9885C257.786 15.2292 257.131 16.9808 256.67 18.3918H254.294C255.094 15.8131 256.428 12.0179 256.864 10.6069C257.349 9.07426 257.422 8.4904 257.422 7.95519C257.422 7.46863 257.228 7.12804 256.719 7.12804C256.331 7.12804 255.53 7.54161 254.488 9.3662L253.833 8.9283C255.07 6.47119 256.476 5.79001 257.883 5.79001C258.901 5.79001 259.483 6.37388 259.483 7.46863C259.483 8.39309 259.386 8.9283 259.168 9.90141H259.459C261.18 6.83611 262.66 5.79001 264.478 5.79001C265.739 5.79001 266.515 6.61716 266.515 7.78489C266.515 8.85531 266.006 10.1447 265.206 12.5288C264.6 14.3291 263.872 16.2996 263.872 16.8105C263.872 17.2241 264.066 17.37 264.309 17.37C265.254 17.37 266.2 16.2753 267.049 14.7913Z" fill="black"/>
<path d="M276.223 5.79001C278.066 5.79001 278.987 6.61716 278.987 8.22279C278.987 8.95262 278.672 9.73111 277.799 9.73111C277.023 9.73111 276.635 9.26889 276.635 8.63636C276.635 8.44174 276.708 8.17414 276.805 7.90653C276.902 7.63892 277.023 7.41997 277.023 7.22535C277.023 6.81178 276.635 6.66581 276.053 6.66581C275.592 6.66581 275.034 6.86043 274.598 7.20102C273.07 8.36876 271.106 12.0666 271.106 15.4238C271.106 16.7862 271.833 17.6133 273.07 17.6133C275.107 17.6133 276.247 15.959 276.95 14.7183L277.653 15.0832C276.659 17.0051 275.01 18.7081 272.585 18.7081C270.063 18.7081 268.802 16.9808 268.802 14.548C268.802 11.5557 270.912 8.53905 272.682 7.1767C274.113 6.10627 275.204 5.79001 276.223 5.79001Z" fill="black"/>
<path d="M288.935 15.1562C287.941 17.1024 285.71 18.7081 283.528 18.7081C280.933 18.7081 279.793 16.7862 279.793 14.621C279.793 11.8963 281.272 9.46351 283.212 7.6146C284.449 6.44686 285.928 5.79001 286.947 5.79001C288.935 5.79001 289.76 6.69014 289.76 7.97951C289.76 9.43918 288.571 10.1933 287.892 10.8015C286.947 11.6044 284.037 13.0154 282.267 13.7209C282.17 14.3047 282.121 14.9129 282.121 15.5211C282.121 16.8835 282.849 17.662 283.916 17.662C285.977 17.662 287.577 15.9834 288.28 14.7426L288.935 15.1562ZM287.965 7.71191C287.965 6.90909 287.626 6.66581 286.923 6.66581C285.346 6.66581 283.237 9.43918 282.436 12.8207C283.819 12.1882 285.783 11.1665 286.462 10.5583C287.505 9.58515 287.965 8.80666 287.965 7.71191Z" fill="black"/>
<path d="M296.484 5.79001C298.254 5.79001 300 6.44686 300 8.29577C300 9.02561 299.564 9.53649 298.885 9.53649C298.303 9.53649 297.842 9.17157 297.842 8.63636C297.842 8.0525 297.963 8.00384 297.963 7.49296C297.963 7.0064 297.502 6.54417 296.484 6.54417C295.199 6.54417 294.762 7.27401 294.762 8.29577C294.762 9.24456 295.126 9.8041 296.047 11.2638C297.308 13.2586 297.745 14.1101 297.745 15.1076C297.745 17.4917 295.538 18.7081 293.598 18.7081C291.343 18.7081 289.718 17.5403 289.718 15.8131C289.718 14.8399 290.179 14.1344 291.003 14.1344C291.682 14.1344 292.095 14.5723 292.095 15.2292C292.095 16.0807 291.634 16.3239 291.634 16.9078C291.634 17.735 292.798 17.9539 293.574 17.9539C294.883 17.9539 295.684 17.1997 295.684 16.0563C295.684 15.0346 295.223 14.548 294.035 12.6748C293.089 11.1665 292.822 10.5826 292.822 9.26888C292.822 7.24968 294.447 5.79001 296.484 5.79001Z" fill="black"/>
</svg>
