<svg width="1000" height="63" viewBox="0 0 1000 63" fill="none" xmlns="http://www.w3.org/2000/svg">
<path d="M0 3.71063H46.3166C51.894 3.71063 56.7439 4.43662 60.8664 5.8886C64.9888 7.42125 68.1412 9.51857 70.4045 12.2612C72.587 15.0845 73.7186 18.3111 73.7186 22.0218C73.7186 26.3777 72.1828 30.0883 69.1112 33.2343C66.0396 36.3803 61.8363 38.5583 56.4206 39.7682L77.7602 60.9834H46.3975L29.4228 41.7042H25.3812V60.9834H0V3.71063ZM45.8316 26.3777C47.0441 25.4904 47.6908 24.3611 47.6908 22.8284C47.6908 21.2958 47.1249 20.0051 45.9125 19.1178C44.7 18.2305 43.0025 17.8271 40.8201 17.8271H25.3812V27.749H40.8201C42.9217 27.749 44.6192 27.265 45.8316 26.3777Z" fill="white"/>
<path d="M101.63 59.2087C94.7589 56.7081 89.424 53.0781 85.6249 48.3995C81.8258 43.8015 79.8858 38.3969 79.8858 32.347C79.8858 26.2971 81.8258 20.8924 85.6249 16.2138C89.424 11.6159 94.7589 7.98592 101.63 5.48528C108.5 2.98463 116.503 1.69398 125.475 1.69398C134.528 1.69398 142.53 2.98463 149.401 5.48528C156.272 7.98592 161.688 11.6159 165.487 16.2138C169.286 20.8924 171.145 26.2971 171.145 32.347C171.145 38.3969 169.286 43.8015 165.487 48.3995C161.688 53.0781 156.272 56.7081 149.401 59.2087C142.53 61.7093 134.528 63 125.475 63C116.503 63 108.5 61.7093 101.63 59.2087ZM135.579 44.3662C138.408 43.2369 140.671 41.6236 142.288 39.5262C143.824 37.5096 144.632 35.0896 144.632 32.347C144.632 29.6044 143.824 27.1844 142.288 25.0871C140.671 23.0704 138.408 21.4571 135.579 20.3278C132.669 19.1985 129.274 18.6338 125.475 18.6338C121.676 18.6338 118.281 19.1985 115.452 20.3278C112.542 21.4571 110.279 23.0704 108.743 25.0871C107.126 27.1844 106.318 29.6044 106.318 32.347C106.318 35.0896 107.126 37.5096 108.743 39.5262C110.279 41.6236 112.542 43.2369 115.452 44.3662C118.281 45.4955 121.676 46.0602 125.475 46.0602C129.274 46.0602 132.669 45.4955 135.579 44.3662Z" fill="white"/>
<path d="M178.951 3.71063H204.332V43.6402H240.141V60.9834H178.951V3.71063Z" fill="white"/>
<path d="M247.547 3.71063H272.929V43.6402H308.737V60.9834H247.547V3.71063Z" fill="white"/>
<path d="M358.111 41.0589L326.102 3.71063H356.01L371.934 23.6351L387.453 3.71063H414.855L383.493 40.4136V60.9834H358.111V41.0589Z" fill="white"/>
<path d="M438.534 59.2087C431.663 56.7081 426.328 53.0781 422.529 48.3995C418.73 43.8015 416.79 38.3969 416.79 32.347C416.79 26.2971 418.73 20.8924 422.529 16.2138C426.328 11.6159 431.663 7.98592 438.534 5.48528C445.405 2.98463 453.407 1.69398 462.379 1.69398C471.433 1.69398 479.435 2.98463 486.306 5.48528C493.176 7.98592 498.592 11.6159 502.391 16.2138C506.19 20.8924 508.049 26.2971 508.049 32.347C508.049 38.3969 506.19 43.8015 502.391 48.3995C498.592 53.0781 493.176 56.7081 486.306 59.2087C479.435 61.7093 471.433 63 462.379 63C453.407 63 445.405 61.7093 438.534 59.2087ZM472.483 44.3662C475.313 43.2369 477.576 41.6236 479.192 39.5262C480.728 37.5096 481.537 35.0896 481.537 32.347C481.537 29.6044 480.728 27.1844 479.192 25.0871C477.576 23.0704 475.313 21.4571 472.483 20.3278C469.573 19.1985 466.179 18.6338 462.379 18.6338C458.58 18.6338 455.185 19.1985 452.356 20.3278C449.446 21.4571 447.183 23.0704 445.647 25.0871C444.031 27.1844 443.222 29.6044 443.222 32.347C443.222 35.0896 444.031 37.5096 445.647 39.5262C447.183 41.6236 449.446 43.2369 452.356 44.3662C455.185 45.4955 458.58 46.0602 462.379 46.0602C466.179 46.0602 469.573 45.4955 472.483 44.3662Z" fill="white"/>
<path d="M533.477 59.612C527.576 57.3534 522.969 54.1268 519.816 49.9321C516.583 45.8182 514.966 40.8976 514.966 35.3316V3.71063H540.347V34.1216C540.347 37.7516 541.56 40.5749 543.985 42.5915C546.41 44.6889 549.724 45.7375 554.008 45.7375C558.292 45.7375 561.606 44.6889 564.112 42.5915C566.618 40.5749 567.83 37.7516 567.83 34.1216V3.71063H593.211V35.3316C593.211 40.8976 591.595 45.8182 588.442 49.9321C585.29 54.1268 580.763 57.3534 574.863 59.612C568.962 61.8707 562.01 63 554.17 63C546.248 63 539.377 61.8707 533.477 59.612Z" fill="white"/>
<path d="M603.476 3.71063H649.792C655.37 3.71063 660.22 4.43662 664.342 5.8886C668.465 7.42125 671.617 9.51857 673.88 12.2612C676.063 15.0845 677.194 18.3111 677.194 22.0218C677.194 26.3777 675.659 30.0883 672.587 33.2343C669.515 36.3803 665.312 38.5583 659.896 39.7682L681.236 60.9834H649.873L632.899 41.7042H628.857V60.9834H603.476V3.71063ZM649.307 26.3777C650.52 25.4904 651.167 24.3611 651.167 22.8284C651.167 21.2958 650.601 20.0051 649.388 19.1178C648.176 18.2305 646.478 17.8271 644.296 17.8271H628.857V27.749H644.296C646.397 27.749 648.095 27.265 649.307 26.3777Z" fill="white"/>
<path d="M754.509 5.56594L749.013 27.6684H745.941C746.588 14.2778 742.95 6.8566 734.382 6.8566C729.452 6.8566 725.733 9.35723 722.5 12.7452C717.084 18.4725 711.345 28.959 711.345 43.0755C711.345 48.7222 712.8 52.3521 715.387 55.0141C717.569 57.2727 720.56 58.3214 724.117 58.3214C733.736 58.3214 739.96 50.6581 743.92 42.4302L746.83 43.8822C741.9 54.4494 733.331 62.1127 722.742 62.1127C710.699 62.1127 702.939 54.9334 702.939 40.6556C702.939 23.7964 716.761 3.62996 734.301 3.62996C742.142 3.62996 745.375 6.77593 747.477 9.4379H748.124L751.599 5.56594H754.509Z" fill="white"/>
<path d="M767.117 32.831H768.087C773.826 22.6671 778.676 19.1985 784.738 19.1985C788.941 19.1985 791.528 21.9411 791.528 25.8131C791.528 29.3624 789.83 33.6376 787.163 41.5429C785.142 47.5122 782.717 54.0461 782.717 55.7401C782.717 57.1114 783.364 57.5954 784.172 57.5954C787.325 57.5954 790.558 54.0461 793.225 49.0448L795.569 50.5775C792.821 56.7081 786.516 62.032 780.05 62.032C776.736 62.032 774.472 59.6927 774.472 56.4661C774.472 53.0781 777.625 45.6568 779.888 39.0423C781.909 32.831 784.091 27.749 784.091 25.7324C784.091 23.8771 783.283 23.0704 781.424 23.0704C778.11 23.0704 771.077 28.7977 764.126 46.3828C762.509 50.4968 760.165 56.3854 758.629 60.9834H750.708C753.375 52.5134 754.588 49.3675 766.632 12.9872C767.763 9.6799 768.248 7.74392 768.248 6.6146C768.248 5.24328 768.167 4.43662 767.44 3.79129C766.632 3.0653 764.53 2.82331 762.994 2.66197L763.883 0H778.433C778.918 0 778.999 0.322664 778.999 0.483993C778.999 0.967992 778.433 2.09731 777.786 3.87196C776.816 6.29193 776.251 7.98592 774.877 12.0999L767.117 32.831Z" fill="white"/>
<path d="M830.11 55.4981C830.11 56.7081 830.676 57.5954 831.807 57.5954C834.96 57.5954 838.84 54.2074 841.507 49.0448L843.77 50.5775C841.022 56.7081 834.717 62.032 828.251 62.032C824.937 62.032 823.158 59.7734 823.158 56.7081C823.158 54.6108 823.724 52.9168 824.047 51.6261H823.158C821.542 54.2074 820.733 55.4174 818.551 57.5954C816.045 60.096 812.569 62.032 808.609 62.032C804.082 62.032 798.99 58.9667 798.99 50.6581C798.99 39.1229 811.276 19.1985 823.482 19.1985C827.685 19.1985 830.757 21.6991 831.161 25.2484H832.131L834.636 20.2471H840.537C839.001 25.0064 836.576 32.1857 834.232 39.6069C831.484 47.6735 830.11 53.7234 830.11 55.4981ZM822.916 47.5122C826.311 41.2202 828.655 32.7503 828.655 28.475C828.655 23.9577 826.311 22.0218 823.482 22.0218C820.087 22.0218 816.773 24.2804 813.944 28.717C809.498 35.8156 806.75 44.6082 806.75 52.4328C806.75 56.6274 808.689 58.2407 811.357 58.2407C814.186 58.2407 816.53 56.0627 818.066 54.2881C819.683 52.2714 821.299 50.4968 822.916 47.5122Z" fill="white"/>
<path d="M890.163 49.0448L892.426 50.5775C889.516 56.5467 883.858 62.032 876.987 62.032C873.673 62.032 871.329 59.6927 871.329 56.4661C871.329 53.0781 874.481 45.6568 876.745 39.0423C878.766 32.831 880.948 27.749 880.948 25.7324C880.948 23.8771 880.14 23.0704 878.281 23.0704C874.966 23.0704 867.934 28.7977 860.983 46.3828C859.285 50.4968 857.103 56.3047 855.567 60.9834H847.645C850.313 52.4328 854.759 39.8489 856.214 35.1703C857.83 30.0883 858.073 28.1524 858.073 26.3777C858.073 24.7644 857.426 23.6351 855.729 23.6351C854.435 23.6351 851.768 25.0064 848.292 31.0563L846.109 29.6044C850.232 21.4571 854.92 19.1985 859.608 19.1985C863.003 19.1985 864.943 21.1344 864.943 24.7644C864.943 27.8297 864.62 29.6044 863.893 32.831H864.863C870.602 22.6671 875.532 19.1985 881.595 19.1985C885.798 19.1985 888.385 21.9411 888.385 25.8131C888.385 29.3624 886.687 33.6376 884.02 41.5429C881.999 47.5122 879.574 54.0461 879.574 55.7401C879.574 57.1114 880.221 57.5954 881.029 57.5954C884.181 57.5954 887.334 53.9654 890.163 49.0448Z" fill="white"/>
<path d="M920.742 19.1985C926.885 19.1985 929.957 21.9411 929.957 27.265C929.957 29.685 928.906 32.2663 925.996 32.2663C923.409 32.2663 922.116 30.7337 922.116 28.6364C922.116 27.991 922.358 27.1037 922.682 26.2164C923.005 25.3291 923.409 24.6031 923.409 23.9577C923.409 22.5864 922.116 22.1024 920.176 22.1024C918.64 22.1024 916.781 22.7478 915.326 23.8771C910.234 27.749 903.686 40.0102 903.686 51.1421C903.686 55.6594 906.111 58.402 910.234 58.402C917.024 58.402 920.823 52.9168 923.167 48.8028L925.511 50.0128C922.197 56.3854 916.7 62.032 908.617 62.032C900.211 62.032 896.007 56.3047 896.007 48.2382C896.007 38.3163 903.04 28.3137 908.94 23.7964C913.71 20.2471 917.347 19.1985 920.742 19.1985Z" fill="white"/>
<path d="M963.117 50.2548C959.803 56.7081 952.367 62.032 945.092 62.032C936.443 62.032 932.644 55.6594 932.644 48.4802C932.644 39.4456 937.575 31.379 944.041 25.2484C948.163 21.3764 953.094 19.1985 956.489 19.1985C963.117 19.1985 965.866 22.1831 965.866 26.4584C965.866 31.2983 961.905 33.799 959.642 35.8156C956.489 38.4776 946.789 43.1562 940.889 45.4955C940.565 47.4315 940.404 49.4481 940.404 51.4648C940.404 55.9821 942.829 58.5634 946.385 58.5634C953.256 58.5634 958.591 52.9974 960.935 48.8835L963.117 50.2548ZM959.884 25.5711C959.884 22.9091 958.752 22.1024 956.408 22.1024C951.154 22.1024 944.122 31.2983 941.454 42.5109C946.062 40.4136 952.609 37.0256 954.873 35.009C958.348 31.7823 959.884 29.201 959.884 25.5711Z" fill="white"/>
<path d="M988.279 19.1985C994.18 19.1985 1000 21.3764 1000 27.507C1000 29.927 998.545 31.621 996.282 31.621C994.342 31.621 992.806 30.411 992.806 28.6364C992.806 26.7004 993.21 26.5391 993.21 24.8451C993.21 23.2318 991.674 21.6991 988.279 21.6991C983.995 21.6991 982.54 24.1191 982.54 27.507C982.54 30.653 983.753 32.5083 986.824 37.3483C991.028 43.9629 992.483 46.7862 992.483 50.0935C992.483 57.9987 985.127 62.032 978.66 62.032C971.143 62.032 965.727 58.16 965.727 52.4328C965.727 49.2061 967.263 46.8668 970.011 46.8668C972.275 46.8668 973.649 48.3188 973.649 50.4968C973.649 53.3201 972.113 54.1268 972.113 56.0627C972.113 58.8054 975.993 59.5314 978.58 59.5314C982.945 59.5314 985.612 57.0307 985.612 53.2394C985.612 49.8515 984.076 48.2382 980.115 42.0269C976.963 37.0256 976.074 35.0896 976.074 30.7337C976.074 24.0384 981.489 19.1985 988.279 19.1985Z" fill="white"/>
</svg>
